<?xml version="1.0" encoding="UTF-8" standalone="no"?>
<svg
   inkscape:export-ydpi="394.54666"
   inkscape:export-xdpi="394.54666"
   inkscape:export-filename="/Users/celineauzias/Dropbox/artwork/N2I/2020/n2i2020_affiche_hd.png"
   width="498.26379"
   height="224.88271"
   viewBox="0 0 131.83229 59.500218"
   version="1.1"
   id="svg1295"
   inkscape:version="1.1.1 (c3084ef, 2021-09-22)"
   sodipodi:docname="N2I2024-monochrome.svg"
   xmlns:inkscape="http://www.inkscape.org/namespaces/inkscape"
   xmlns:sodipodi="http://sodipodi.sourceforge.net/DTD/sodipodi-0.dtd"
   xmlns="http://www.w3.org/2000/svg"
   xmlns:svg="http://www.w3.org/2000/svg"
   xmlns:rdf="http://www.w3.org/1999/02/22-rdf-syntax-ns#"
   xmlns:cc="http://creativecommons.org/ns#"
   xmlns:dc="http://purl.org/dc/elements/1.1/">
  <defs
     id="defs1289">
    <style
       id="style466654">.cls-1{fill:none}.cls-5{opacity:.45}</style>
    <style
       id="style6517">.cls-1{fill:none}.cls-5{opacity:.45}</style>
  </defs>
  <sodipodi:namedview
     units="px"
     id="base"
     pagecolor="#ffffff"
     bordercolor="#666666"
     borderopacity="1.0"
     inkscape:pageopacity="0.0"
     inkscape:pageshadow="2"
     inkscape:zoom="1.3736711"
     inkscape:cx="282.8188"
     inkscape:cy="157.60687"
     inkscape:document-units="px"
     inkscape:current-layer="g69201"
     inkscape:document-rotation="0"
     showgrid="false"
     inkscape:window-width="1438"
     inkscape:window-height="855"
     inkscape:window-x="0"
     inkscape:window-y="23"
     inkscape:window-maximized="0"
     inkscape:snap-global="false"
     inkscape:pagecheckerboard="true"
     showguides="false"
     fit-margin-top="0"
     fit-margin-left="0"
     fit-margin-right="0"
     fit-margin-bottom="0">
    <inkscape:grid
       type="xygrid"
       id="grid3480"
       originx="-11.752927"
       originy="-97.138457" />
    <sodipodi:guide
       position="-1030.4396,-395.72029"
       orientation="1,0"
       id="guide18337" />
  </sodipodi:namedview>
  <metadata
     id="metadata1292">
    <rdf:RDF>
      <cc:Work
         rdf:about="">
        <dc:format>image/svg+xml</dc:format>
        <dc:type
           rdf:resource="http://purl.org/dc/dcmitype/StillImage" />
      </cc:Work>
    </rdf:RDF>
  </metadata>
  <g
     inkscape:label="Calque 1"
     inkscape:groupmode="layer"
     id="layer1"
     transform="translate(-11.752928,-97.138454)">
    <g
       id="g69201"
       transform="matrix(1.1292808,0,0,1.1292808,-13.87884,-18.867548)">
      <path
         id="path56068"
         style="fill:#001724;fill-opacity:1;stroke:none;stroke-width:0.917622px;stroke-linecap:butt;stroke-linejoin:miter;stroke-opacity:1"
         d="M 453.16797 43.832031 C 452.30062 43.832031 450.93679 43.863466 449.07812 43.925781 C 447.21948 43.988096 445.14387 44.111599 442.85156 44.298828 C 440.55917 44.423515 438.14366 44.611784 435.60352 44.861328 C 433.0634 45.048444 430.67766 45.297487 428.44727 45.609375 C 426.21685 45.858919 424.26454 46.170662 422.5918 46.544922 C 420.919 46.919153 419.77386 47.325087 419.1543 47.761719 C 418.41084 48.260694 417.72889 49.258821 417.10938 50.755859 C 416.48981 52.190526 415.90134 53.904349 415.34375 55.900391 C 414.84813 57.896404 414.38295 60.049492 413.94922 62.357422 C 413.51555 64.66538 413.14377 66.94197 412.83398 69.1875 C 412.52417 71.370629 412.2776 73.429611 412.0918 75.363281 C 411.90599 77.23458 411.8125 78.762172 411.8125 79.947266 C 411.8125 82.13048 411.93576 84.438449 412.18359 86.871094 C 412.49338 89.303767 412.86516 91.766702 413.29883 94.261719 C 413.79445 96.694421 414.38292 99.096518 415.06445 101.4668 C 415.74593 103.7747 416.48947 105.95723 417.29492 108.01562 C 417.60468 108.76417 417.94663 109.54461 418.31836 110.35547 C 418.56705 110.89798 418.85408 111.40191 419.1582 111.88867 C 405.74237 112.32757 390.91426 113.08139 375.4375 114.04883 C 375.38466 110.80708 375.27594 107.57862 375.10352 104.36719 C 374.85568 99.68898 374.4223 95.010263 373.80273 90.332031 C 376.59075 89.770684 379.38001 89.335323 382.16797 89.023438 C 385.01792 88.649149 387.83509 88.149138 390.62305 87.525391 L 388.02148 78.169922 L 372.5957 77.140625 L 371.85156 69.09375 C 377.17963 68.594832 382.44615 68.251683 387.65039 68.064453 C 392.9166 67.877309 398.24466 67.628266 403.63477 67.316406 C 403.63477 64.259957 403.44985 61.234255 403.07812 58.240234 C 402.76833 55.183785 402.42641 52.158083 402.05469 49.164062 C 397.16026 48.914605 392.29735 48.696995 387.46484 48.509766 C 382.63236 48.260221 377.79931 48.134766 372.9668 48.134766 C 369.37339 48.134766 365.81073 48.197636 362.2793 48.322266 C 358.8098 48.384581 355.2789 48.447451 351.68555 48.509766 L 351.68555 67.316406 L 351.68555 75.642578 C 351.68555 82.940599 351.65383 90.20771 351.5918 97.443359 C 351.53967 103.47874 351.39534 109.56175 351.16797 115.68555 C 359.32417 115.09799 367.41751 114.55489 375.41992 114.05469 C 375.44313 115.4716 375.47656 116.88593 375.47656 118.30859 L 351.03516 119.15039 C 351.08434 117.9918 351.11151 116.84486 351.1543 115.68945 C 346.23756 116.04368 341.3565 116.40601 336.46289 116.78125 C 336.50959 112.04762 336.53711 107.37072 336.53711 102.77734 C 336.59914 97.413058 336.63086 91.985188 336.63086 86.496094 L 336.62891 86.496094 C 336.62891 80.008936 336.53737 73.553607 336.35156 67.128906 C 336.16573 60.704177 335.94901 54.248848 335.70117 47.761719 L 316.92773 45.515625 C 317.05164 53.375049 317.20671 61.171626 317.39258 68.90625 C 317.64045 76.640902 317.79548 84.408082 317.85742 92.205078 C 316.06072 87.339731 314.2635 82.504119 312.4668 77.701172 C 310.67009 72.835825 309.05974 67.939409 307.63477 63.011719 C 306.64351 59.768154 305.58982 56.587571 304.47461 53.46875 C 303.42135 50.287586 302.27618 47.138352 301.03711 44.019531 L 264.69922 44.205078 C 265.31876 56.181274 265.75414 68.095814 266.00195 79.947266 C 266.24982 91.798774 266.52812 103.71326 266.83789 115.68945 L 286.91016 116.25 C 287.28187 107.82926 287.74711 99.469884 288.30469 91.173828 C 288.92427 82.815457 289.51273 74.426602 290.07031 66.005859 C 291.6192 69.873171 293.16791 73.708732 294.7168 77.513672 C 296.26563 81.318612 297.90783 85.124747 299.64258 88.929688 C 301.99686 94.106864 304.35074 99.25232 306.70508 104.36719 C 308.89525 109.06745 311.08526 113.82665 313.27539 118.63477 C 313.27411 118.63487 313.27276 118.63466 313.27148 118.63477 C 313.27842 118.65 313.28603 118.66449 313.29297 118.67969 C 317.89968 118.29771 322.42791 117.91844 327.00586 117.54102 C 330.16421 117.29159 333.24971 117.03502 336.45703 116.78906 C 336.44999 117.52224 336.45169 118.22567 336.44336 118.96289 C 332.60217 118.77566 328.79294 118.68164 325.01367 118.68164 C 323.15502 118.68164 321.26435 118.77566 319.34375 118.96289 C 317.48509 119.15012 315.62623 119.39919 313.76758 119.71094 C 313.60935 119.36299 313.45124 119.0261 313.29297 118.67969 C 264.34941 122.73803 222.91602 126.98633 222.91602 126.98633 C 222.31587 127.13725 221.77997 127.46261 221.27148 127.86719 C 222.93186 127.61238 224.63279 127.39013 226.41016 127.22852 C 229.5579 126.8787 232.56566 126.63215 235.43359 126.49219 C 238.30154 126.35219 240.50603 126.2832 242.04492 126.2832 C 244.70301 126.2832 247.1858 126.35219 249.49414 126.49219 C 251.87243 126.63218 254.00589 127.08782 255.89453 127.85742 C 257.85312 128.55711 259.53069 129.74658 260.92969 131.42578 C 262.32868 133.03504 263.37867 135.3094 264.07812 138.24805 C 264.42787 139.85731 264.63708 141.50046 264.70703 143.17969 C 264.777 144.85889 264.8125 146.50402 264.8125 148.11328 C 264.8125 148.74298 264.777 149.58327 264.70703 150.63281 C 264.70703 151.68232 264.67348 152.76529 264.60352 153.88477 C 264.53355 155.00427 264.39344 156.05369 264.18359 157.0332 C 263.97374 158.01277 263.72902 158.81754 263.44922 159.44727 C 263.02952 160.2169 262.18878 161.23277 260.92969 162.49219 C 259.74054 163.68163 258.4123 164.90465 256.94336 166.16406 C 255.47441 167.35351 254.03962 168.50943 252.64062 169.62891 C 251.24168 170.67844 250.15812 171.48322 249.38867 172.04297 C 248.19952 172.88257 246.94037 173.68545 245.61133 174.45508 C 244.35223 175.15477 243.1286 175.8905 241.93945 176.66016 C 239.63111 177.98954 237.28649 179.31905 234.9082 180.64844 C 232.59986 181.90783 230.2572 183.16634 227.87891 184.42578 C 241.3792 184.21579 254.91413 183.79565 268.48438 183.16602 C 268.34449 187.36408 268.23989 191.56365 268.16992 195.76172 C 268.09995 199.95978 267.95982 204.1574 267.75 208.35547 L 225.6543 209.88477 C 228.06996 217.53279 230.63635 222.84738 232.94727 223.52344 C 245.17091 227.09933 360.98352 216.18694 431.48242 209.18945 C 432.71686 210.34029 434.2019 211.2189 435.94531 211.81836 C 436.36501 211.95835 436.92355 212.06477 437.62305 212.13477 C 438.39251 212.20476 439.19774 212.23828 440.03711 212.23828 C 440.87651 212.30828 441.67976 212.34375 442.44922 212.34375 L 444.33789 212.34375 C 446.99598 212.34375 449.61888 212.27476 452.20703 212.13477 C 454.86512 212.06477 457.52355 211.95835 460.18164 211.81836 C 461.72054 211.67836 463.25993 211.5739 464.79883 211.50391 C 466.40766 211.43391 467.94706 211.22482 469.41602 210.875 C 470.74506 210.59512 472.24893 209.99944 473.92773 209.08984 C 475.67648 208.18027 477.38958 207.13085 479.06836 205.94141 C 479.86122 205.37965 480.62099 204.80174 481.35156 204.20898 C 477.20974 204.59677 459.55347 206.38661 438.83398 208.45508 C 435.67734 208.77021 435.63652 208.77741 432.17578 209.12109 C 431.8069 209.15773 431.86259 209.15249 431.49023 209.18945 C 431.1382 208.86159 430.79887 208.5193 430.48828 208.14648 C 429.08927 206.39731 428.00579 204.40305 427.23633 202.16406 C 427.02634 201.53437 426.81518 200.48495 426.60547 199.01562 C 426.46547 197.54632 426.32721 195.97022 426.1875 194.29102 C 426.0475 192.61178 425.90729 191.00414 425.76758 189.46484 C 425.69758 187.92555 425.66211 186.84066 425.66211 186.21094 L 449.90039 185.58008 C 449.55066 187.53916 449.375 189.35983 449.375 191.03906 C 449.375 192.22851 449.61976 193.13786 450.10938 193.76758 C 450.599 194.32733 451.22859 194.7475 451.99805 195.02734 C 452.83742 195.23734 453.74725 195.3418 454.72656 195.3418 L 457.66406 195.3418 C 459.27287 195.3418 460.63667 195.23734 461.75586 195.02734 C 462.87505 194.74764 463.78485 194.29197 464.48438 193.66211 C 465.25379 193.03242 465.81238 192.15857 466.16211 191.03906 C 466.51184 189.91958 466.6875 188.4855 466.6875 186.73633 C 466.6875 185.33697 466.44274 183.93649 465.95312 182.53711 C 465.4635 181.06781 464.51813 180.05389 463.11914 179.49414 C 461.65019 178.79448 459.86804 178.2698 457.76953 177.91992 C 455.67105 177.50014 453.46656 177.18452 451.1582 176.97461 C 448.91982 176.76462 446.68172 176.66016 444.44336 176.66016 C 442.27488 176.59016 440.42171 176.55469 438.88281 176.55469 C 437.20404 176.55469 435.48898 176.59016 433.74023 176.66016 C 432.06143 176.66016 430.34835 176.69568 428.59961 176.76562 L 426.81641 130.79688 L 434.16016 130.79688 C 443.32356 130.79688 452.38236 130.69046 461.33594 130.48047 C 467.10277 130.30031 472.94652 130.11982 478.77148 129.93945 C 477.71364 124.14805 476.73962 119.08146 476.10352 116.28125 C 476.02052 115.91595 475.77288 115.57692 475.41602 115.25781 C 476.57182 114.98379 477.70782 114.66627 478.81641 114.28516 C 481.41855 113.34952 483.64918 111.94549 485.50781 110.07422 C 485.81759 109.76233 486.12775 108.92109 486.4375 107.54883 C 486.74725 106.17653 487.0256 104.55489 487.27344 102.68359 C 487.58331 100.74995 487.83177 98.659592 488.01758 96.414062 C 488.26524 94.168535 488.45016 92.048776 488.57422 90.052734 C 488.76003 87.99432 488.88524 86.184411 488.94727 84.625 C 489.07104 83.065589 489.16258 81.973357 489.22461 81.349609 C 489.28664 80.601119 489.31836 79.854017 489.31836 79.105469 L 489.31836 76.671875 C 489.31836 75.861012 489.28664 74.77073 489.22461 73.398438 C 489.16286 72.026171 489.07133 70.528004 488.94727 68.90625 C 488.88524 67.222096 488.76003 65.474914 488.57422 63.666016 C 488.45024 61.857089 488.29516 60.143267 488.10938 58.521484 C 487.92348 56.899702 487.67697 55.464348 487.36719 54.216797 C 487.11938 52.906959 486.83905 51.908832 486.5293 51.222656 C 486.15757 50.411794 485.22912 49.662682 483.74219 48.976562 C 482.25525 48.290389 480.45804 47.666844 478.35156 47.105469 C 476.30706 46.544093 474.07638 46.077356 471.66016 45.703125 C 469.24387 45.266493 466.86014 44.923373 464.50586 44.673828 C 462.15158 44.361827 459.95078 44.142208 457.90625 44.017578 C 455.9237 43.892948 454.34512 43.832031 453.16797 43.832031 z M 478.77148 129.93945 C 479.59486 134.44718 480.45237 139.42328 481.35156 144.90234 C 484.22785 144.64349 487.10407 144.38393 489.98047 144.125 L 488.40625 129.64062 C 485.16974 129.74029 481.99024 129.83979 478.77148 129.93945 z M 481.35156 144.90234 C 477.23314 145.27298 473.11467 145.6429 468.99609 146.01367 C 462.07105 146.64339 455.07664 147.44819 448.01172 148.42773 L 448.43164 161.44141 C 449.97054 161.44141 452.104 161.54587 454.83203 161.75586 C 457.63003 161.89585 460.4977 162.14243 463.43555 162.49219 C 466.44342 162.84203 469.27551 163.33124 471.93359 163.96094 C 474.59168 164.52069 476.65607 165.22092 478.125 166.06055 C 480.57324 167.52984 482.42644 169.13752 483.68555 170.88672 C 484.45862 171.90419 485.07068 172.97515 485.55859 174.08789 C 486.4513 181.47255 487.12379 188.27318 487.29883 193.44727 C 487.28954 193.75824 487.28405 194.06489 487.25391 194.39648 C 487.18391 195.16612 487.11297 195.90187 487.04297 196.60156 C 486.97297 197.30123 486.83304 197.85948 486.62305 198.2793 C 486.06346 199.46874 485.08453 200.76471 483.68555 202.16406 C 482.94875 202.8642 482.16805 203.54208 481.35352 204.20312 C 482.26691 204.11544 485.41558 203.79368 485.65625 203.77734 C 487.08993 203.68002 487.50645 199.67039 487.30469 193.54297 C 487.30527 193.56064 487.30802 193.58588 487.30859 193.60352 C 487.33756 193.12086 487.35742 192.64691 487.35742 192.19336 L 487.35742 190.4082 C 487.35742 187.81937 487.3239 185.37143 487.25391 183.0625 C 487.25391 180.75355 486.97365 178.58374 486.41406 176.55469 C 486.20504 175.68849 485.91484 174.84853 485.55273 174.0332 C 484.41033 164.58982 482.92112 154.46609 481.35156 144.90234 z M 225.6543 209.88477 C 222.7448 200.67328 220.06369 188.01983 218.34961 175.23438 C 215.62712 176.3916 212.959 177.46749 210.35742 178.44336 C 210.77712 183.83084 211.19554 189.18441 211.61523 194.50195 C 212.10488 199.74956 212.52525 205.03207 212.875 210.34961 L 225.6543 209.88477 z M 221.27148 127.86719 C 221.27637 127.8633 221.28026 127.85738 221.28516 127.85352 C 220.06085 128.0407 218.86209 128.24813 217.70117 128.48633 C 214.97313 129.04608 212.9798 129.71084 211.7207 130.48047 C 210.88131 130.97028 210.21621 131.88155 209.72656 133.21094 C 209.23692 134.54032 208.8185 135.97438 208.46875 137.51367 C 208.18893 139.05294 207.97777 140.55607 207.83789 142.02539 C 207.76792 143.49471 207.73437 144.61513 207.73438 145.38477 C 207.73437 148.46335 207.94358 151.57605 208.36328 154.72461 L 216.52734 153.61914 C 216.16386 141.06789 217.40813 130.9411 221.27148 127.86719 z M 216.52734 153.61914 C 216.72291 160.37202 217.34723 167.76254 218.34766 175.22656 C 218.55617 175.13805 218.7516 175.0702 218.96094 174.98047 C 221.89883 173.65108 224.76646 172.18153 227.56445 170.57227 C 230.36244 168.96303 233.05639 167.21339 235.64453 165.32422 C 238.23267 163.43511 240.53982 161.37177 242.56836 159.13281 C 243.6176 157.94334 244.52743 156.7894 245.29688 155.66992 C 246.13622 154.48047 246.55664 153.07994 246.55664 151.4707 C 246.55664 147.69245 245.78694 145.20901 244.24805 144.01953 C 242.7791 142.76011 240.40092 142.13086 237.11328 142.13086 C 235.71429 142.13086 234.27949 142.16633 232.81055 142.23633 C 231.41156 142.23633 230.08331 142.34079 228.82422 142.55078 C 226.79567 142.9006 225.53647 143.56535 225.04688 144.54492 C 224.62718 145.52446 224.41602 146.95852 224.41602 148.84766 L 224.41602 150.63281 C 224.48598 151.26254 224.55704 151.89179 224.62695 152.52148 L 216.52734 153.61914 z M 251.7832 47.947266 C 244.96818 48.446297 238.21461 48.883555 231.52344 49.257812 C 224.89427 49.569643 218.20234 49.850065 211.44922 50.099609 C 211.57314 52.71937 211.66657 55.339138 211.72852 57.958984 C 211.85241 60.516373 211.97569 63.104792 212.09961 65.724609 L 220.92969 66.847656 C 221.36336 72.64861 221.765 78.419593 222.13672 84.158203 C 222.57039 89.896785 222.94219 95.697187 223.25195 101.56055 L 217.21094 101.6543 C 217.3968 104.71075 217.52204 107.7345 217.58398 110.72852 C 217.64593 113.66022 217.67578 116.65455 217.67578 119.71094 L 251.03906 119.15039 C 250.72931 117.65335 250.51259 116.12576 250.38867 114.56641 C 250.32673 113.007 250.29492 111.44613 250.29492 109.88672 L 250.29492 104.27344 C 250.29492 102.40214 250.3585 100.5628 250.48242 98.753906 L 241.00195 98.566406 C 240.93998 95.946617 240.87835 93.389605 240.81641 90.894531 L 240.81641 83.128906 L 240.81641 76.671875 C 240.87838 74.551089 240.94001 72.399926 241.00195 70.216797 L 251.31836 70.589844 C 251.44225 66.847276 251.4721 63.105849 251.41016 59.363281 C 251.3482 55.558341 251.47344 51.752206 251.7832 47.947266 z M 450.47266 69 C 451.34006 69 452.82712 69.031435 454.93359 69.09375 C 457.04007 69.09375 459.20714 69.187771 461.4375 69.375 C 463.72984 69.562116 465.80543 69.873915 467.66406 70.310547 C 469.58467 70.74715 470.79336 71.339343 471.28906 72.087891 C 471.97066 73.148269 472.37427 74.39544 472.49805 75.830078 C 472.62211 77.202373 472.68359 78.512271 472.68359 79.759766 C 472.68359 80.445942 472.65187 81.569496 472.58984 83.128906 C 472.58984 84.625888 472.52836 86.216236 472.4043 87.900391 C 472.28041 89.522173 472.09549 91.049708 471.84766 92.484375 C 471.59985 93.85667 471.2897 94.760634 470.91797 95.197266 C 470.42229 95.758612 469.30701 96.258683 467.57227 96.695312 C 465.89946 97.069601 464.04059 97.412722 461.99609 97.724609 C 460.01354 97.974211 458.09302 98.160526 456.23438 98.285156 C 454.43768 98.410071 453.16728 98.472656 452.42383 98.472656 L 450.09961 98.472656 C 449.0464 98.410057 447.80778 98.347471 446.38281 98.285156 C 445.01977 98.160242 443.59433 98.036739 442.10742 97.912109 C 440.62054 97.787479 439.19703 97.630589 437.83398 97.443359 C 436.53291 97.193843 435.41757 96.944857 434.48828 96.695312 C 433.55888 96.445827 433.00026 96.165403 432.81445 95.853516 C 432.50464 95.416913 432.25807 94.730614 432.07227 93.794922 C 431.9482 92.859315 431.823 91.861188 431.69922 90.800781 C 431.57544 89.740403 431.48389 88.710926 431.42188 87.712891 L 431.42188 85.466797 C 431.42188 84.905422 431.45164 84.001429 431.51367 82.753906 C 431.5757 81.44404 431.66919 80.102764 431.79297 78.730469 C 431.97886 77.295802 432.1638 75.985875 432.34961 74.800781 C 432.59745 73.55323 432.9076 72.712022 433.2793 72.275391 C 433.65102 71.714044 434.64308 71.24541 436.25391 70.871094 C 437.86476 70.434519 439.59837 70.091341 441.45703 69.841797 C 443.37761 69.529824 445.17486 69.31213 446.84766 69.1875 C 448.5824 69.06287 449.79118 69 450.47266 69 z M 439.89648 111.48633 C 441.50845 111.48122 442.95448 111.50834 444.48242 111.51953 C 446.3512 111.53392 448.2321 111.54551 449.96484 111.58594 C 458.4262 111.77835 465.24113 112.28059 469.76758 113.18359 C 470.61668 113.35298 471.3787 113.5385 472.06445 113.73633 C 472.47453 113.85463 472.87715 113.97474 473.22656 114.10352 C 474.1634 114.44879 474.90036 114.82828 475.37891 115.25195 C 473.89634 115.60269 472.38461 115.88795 470.82422 116.0625 C 468.03626 116.37439 465.24889 116.49984 462.46094 116.4375 C 459.67293 116.37519 457.07052 116.34375 454.6543 116.34375 L 450.56445 116.34375 C 448.64384 116.28144 446.445 116.21856 443.9668 116.15625 C 441.55057 116.09394 439.01175 115.99991 436.34766 115.875 C 433.68359 115.68777 431.17264 115.47011 428.81836 115.2207 C 426.52599 114.90884 424.51399 114.56569 422.7793 114.19141 C 421.1065 113.75477 420.05287 113.22531 419.61914 112.60156 C 419.46223 112.38434 419.34964 112.12229 419.20703 111.89062 C 422.63975 111.77857 425.95001 111.69214 429.16992 111.625 C 429.96022 111.60852 430.71206 111.59954 431.48828 111.58594 C 434.37554 111.53536 437.22031 111.49481 439.89648 111.48633 z M 448.57031 111.54883 C 448.76839 111.55243 448.96771 111.55466 449.16406 111.55859 C 448.9704 111.55419 448.76554 111.55293 448.57031 111.54883 z M 388.51953 126.2832 C 391.17762 126.2832 393.66039 126.35219 395.96875 126.49219 C 398.34702 126.63218 400.48051 127.08782 402.36914 127.85742 C 404.32777 128.55711 406.00531 129.74658 407.4043 131.42578 C 408.80328 133.03504 409.85321 135.3094 410.55273 138.24805 C 410.90247 139.85731 411.11167 141.50046 411.18164 143.17969 C 411.25164 144.85889 411.28711 146.50402 411.28711 148.11328 C 411.28711 148.74298 411.25164 149.58327 411.18164 150.63281 C 411.18164 151.68232 411.14812 152.76529 411.07812 153.88477 C 411.00818 155.00427 410.86791 156.05369 410.6582 157.0332 C 410.44821 158.01277 410.20345 158.81754 409.92383 159.44727 C 409.50413 160.2169 408.66535 161.23277 407.40625 162.49219 C 406.21712 163.68163 404.88692 164.90465 403.41797 166.16406 C 401.94901 167.35351 400.51617 168.50943 399.11719 169.62891 C 397.7182 170.67844 396.63274 171.48322 395.86328 172.04297 C 394.67412 172.88257 393.41498 173.68545 392.08594 174.45508 C 390.82686 175.15477 389.60323 175.8905 388.41406 176.66016 C 386.10573 177.98954 383.76303 179.31905 381.38477 180.64844 C 379.07641 181.90783 376.73181 183.16634 374.35352 184.42578 C 387.85384 184.21579 401.38878 183.79565 414.95898 183.16602 C 414.81899 187.36408 414.71453 191.56365 414.64453 195.76172 C 414.57453 199.95978 414.43432 204.1574 414.22461 208.35547 L 359.34961 210.34961 C 358.99988 205.03207 358.57951 199.74956 358.08984 194.50195 C 357.67017 189.18441 357.25173 183.83084 356.83203 178.44336 C 359.63 177.39382 362.49764 176.23989 365.43555 174.98047 C 368.3734 173.65108 371.24104 172.18153 374.03906 170.57227 C 376.83703 168.96303 379.52907 167.21339 382.11719 165.32422 C 384.70536 163.43511 387.01443 161.37177 389.04297 159.13281 C 390.09222 157.94334 391.00208 156.7894 391.77148 155.66992 C 392.61092 154.48047 393.03125 153.07994 393.03125 151.4707 C 393.03125 147.69245 392.26155 145.20901 390.72266 144.01953 C 389.2537 142.76011 386.87553 142.13086 383.58789 142.13086 C 382.18888 142.13086 380.75408 142.16633 379.28516 142.23633 C 377.88617 142.23633 376.55793 142.34079 375.29883 142.55078 C 373.27029 142.9006 372.01115 143.56535 371.52148 144.54492 C 371.10181 145.52446 370.89062 146.95852 370.89062 148.84766 L 370.89062 150.63281 C 370.96062 151.26254 371.03156 151.89179 371.10156 152.52148 L 354.83789 154.72461 C 354.41819 151.57605 354.20898 148.46335 354.20898 145.38477 C 354.20898 144.61513 354.2425 143.49471 354.3125 142.02539 C 354.4525 140.55607 354.66368 139.05294 354.94336 137.51367 C 355.29315 135.97438 355.71153 134.54032 356.20117 133.21094 C 356.69079 131.88155 357.35588 130.97028 358.19531 130.48047 C 359.45439 129.71084 361.44772 129.04608 364.17578 128.48633 C 366.90381 127.9266 369.80698 127.50839 372.88477 127.22852 C 376.0325 126.8787 379.04026 126.63215 381.9082 126.49219 C 384.77614 126.35219 386.98064 126.2832 388.51953 126.2832 z M 314.65234 128.27734 C 315.84149 128.27734 317.16973 128.31281 318.63867 128.38281 C 320.10761 128.38281 321.57598 128.4518 323.04492 128.5918 C 324.58381 128.73179 326.05418 128.94284 327.45312 129.22266 C 328.85211 129.50236 330.11128 129.88703 331.23047 130.37695 C 332.13984 130.79677 333.22335 131.46152 334.48242 132.37109 C 335.7415 133.2107 336.92963 134.15364 338.04883 135.20312 C 339.23799 136.25261 340.28792 137.33755 341.19727 138.45703 C 342.17655 139.57654 342.84165 140.55688 343.19141 141.39648 C 343.4014 141.8163 343.54162 142.86569 343.61133 144.54492 C 343.68133 146.15418 343.75031 147.90383 343.82031 149.79297 C 343.89031 151.68208 343.92578 153.5008 343.92578 155.25 L 343.92578 158.71289 L 343.92578 163.85547 C 343.92578 165.95449 343.89031 168.33342 343.82031 170.99219 C 343.75031 173.58099 343.64585 176.27551 343.50586 179.07422 C 343.36586 181.80296 343.15663 184.42645 342.87695 186.94531 C 342.59725 189.39418 342.21241 191.56206 341.72266 193.45117 C 341.30296 195.34031 340.77799 196.70529 340.14844 197.54492 C 339.30906 198.52446 338.33016 199.60941 337.21094 200.79883 C 336.16171 201.91831 335.00715 203.03674 333.74805 204.15625 C 332.48894 205.20576 331.19428 206.1506 329.86523 206.99023 C 328.60615 207.82984 327.34699 208.42557 326.08789 208.77539 C 324.96869 209.12526 323.39573 209.40536 321.36719 209.61523 C 319.4086 209.82523 317.34422 209.96516 315.17578 210.03516 C 313.07729 210.17515 311.01487 210.24414 308.98633 210.24414 C 306.95779 210.31414 305.31378 210.34961 304.05469 210.34961 L 301.32617 210.34961 C 300.20698 210.34961 299.01691 210.27867 297.75781 210.13867 C 296.49872 210.06867 295.3106 209.96421 294.19141 209.82422 C 293.07221 209.68422 292.26699 209.43966 291.77734 209.08984 C 290.23845 208.1103 288.80561 206.95634 287.47656 205.62695 C 286.21747 204.22763 285.09843 202.72257 284.11914 201.11328 C 283.20979 199.64399 282.50918 197.96531 282.01953 196.07617 C 281.52988 194.18706 281.11147 192.36834 280.76172 190.61914 C 280.41197 188.66003 280.06069 186.52575 279.71094 184.2168 C 279.43115 181.83793 279.15285 179.4235 278.87305 176.97461 C 278.6632 174.52575 278.48755 172.11132 278.34766 169.73242 C 278.20777 167.3535 278.13867 165.11464 278.13867 163.01562 C 278.13867 161.82623 278.20777 159.97196 278.34766 157.45312 C 278.48754 154.86437 278.69675 152.2053 278.97656 149.47656 C 279.32631 146.74779 279.74668 144.1953 280.23633 141.81641 C 280.72597 139.36754 281.35555 137.68694 282.125 136.77734 C 282.89445 135.7978 284.08256 134.92393 285.69141 134.1543 C 287.30025 133.3147 289.11989 132.58089 291.14844 131.95117 C 293.17698 131.32148 295.31043 130.79677 297.54883 130.37695 C 299.85716 129.88717 302.09523 129.5025 304.26367 129.22266 C 306.43211 128.87281 308.42545 128.62629 310.24414 128.48633 C 312.06284 128.34633 313.53315 128.27734 314.65234 128.27734 z M 314.75586 139.61133 C 313.98641 139.61133 312.86738 139.68227 311.39844 139.82227 C 309.99944 139.96226 308.53108 140.20685 306.99219 140.55664 C 305.45329 140.83663 304.01849 141.1858 302.68945 141.60547 C 301.36041 142.02528 300.41702 142.51645 299.85742 143.07617 C 299.01803 143.9158 298.35293 145.59445 297.86328 148.11328 C 297.44358 150.56217 297.12977 153.25474 296.91992 156.19336 C 296.71007 159.13201 296.56997 161.96657 296.5 164.69531 L 296.5 170.7832 C 296.5 171.55284 296.5355 172.74227 296.60547 174.35156 C 296.67544 175.89086 296.74454 177.67413 296.81445 179.70312 C 296.95433 181.66223 297.09444 183.72557 297.23438 185.89453 C 297.44418 187.99358 297.65343 189.98781 297.86328 191.87695 C 298.07313 193.69612 298.28429 195.27022 298.49414 196.59961 C 298.77393 197.859 299.08775 198.6638 299.4375 199.01367 C 299.71732 199.29338 300.10217 199.50445 300.5918 199.64453 C 301.1514 199.78453 301.74545 199.88899 302.375 199.95898 C 303.00455 200.02898 303.60056 200.06445 304.16016 200.06445 L 305.52344 200.06445 C 306.29288 200.06445 307.23627 200.02898 308.35547 199.95898 C 309.54461 199.88899 310.73469 199.78453 311.92383 199.64453 C 313.18292 199.50454 314.33747 199.32899 315.38672 199.11914 C 316.50591 198.90915 317.41573 198.62903 318.11523 198.2793 C 318.81473 197.92945 319.44235 197.12465 320.00195 195.86523 C 320.56155 194.60582 321.01744 193.10272 321.36719 191.35352 C 321.78689 189.60434 322.1007 187.75012 322.31055 185.79102 C 322.59034 183.76194 322.8015 181.8032 322.94141 179.91406 C 323.08129 178.02495 323.18589 176.31078 323.25586 174.77148 C 323.32583 173.16225 323.36133 171.93729 323.36133 171.09766 C 323.36133 170.328 323.32583 169.13853 323.25586 167.5293 C 323.18589 165.85007 323.08129 163.99587 322.94141 161.9668 C 322.87144 159.86778 322.76683 157.73344 322.62695 155.56445 C 322.48707 153.32547 322.27591 151.22666 321.99609 149.26758 C 321.78624 147.30847 321.54151 145.62982 321.26172 144.23047 C 320.9819 142.76114 320.66809 141.78077 320.31836 141.29102 C 319.75876 140.52135 318.91802 140.06572 317.79883 139.92578 C 316.67963 139.71579 315.66521 139.61133 314.75586 139.61133 z "
         transform="matrix(0.23429366,0,0,0.23429366,22.697427,102.72556)" />
      <path
         id="path13688"
         style="fill:#001724;fill-opacity:1;fill-rule:nonzero;stroke:none;stroke-width:6.05949;stroke-linecap:round;stroke-linejoin:round;stroke-miterlimit:4;stroke-dasharray:none;stroke-dashoffset:0;stroke-opacity:1"
         d="M 75.455078 2.9375 A 10.039634 20.890415 80.416557 0 0 75.095703 2.9453125 A 10.039634 20.890415 80.416557 0 0 68.935547 3.5273438 A 10.039634 20.890415 80.416557 0 0 50.070312 14.824219 C 49.855966 15.308654 49.773384 15.856943 49.865234 16.421875 L 51.339844 25.548828 C 51.588976 27.08613 53.018382 28.126138 54.542969 27.875 L 63.365234 26.416016 L 65.839844 41.685547 C 54.284563 44.828782 43.667505 50.10171 34.488281 57.037109 L 29.361328 50.763672 L 33.693359 47.158203 C 34.476052 46.508036 34.592187 45.349813 33.947266 44.560547 L 28.294922 37.638672 C 27.891838 37.145402 27.289473 36.919967 26.705078 36.976562 C 26.35445 37.010708 26.008403 37.140628 25.714844 37.384766 L 7.5527344 52.474609 C 6.7700798 53.124776 6.6543293 54.283042 7.2988281 55.072266 L 12.958984 61.994141 C 13.603778 62.783364 14.748553 62.890273 15.53125 62.240234 L 19.873047 58.644531 L 25.173828 65.130859 C 9.5815497 80.689966 0 101.78043 0 125.00586 C 0 172.83596 40.648218 211.66016 90.734375 211.66016 C 124.80585 211.66016 154.49533 193.69808 170.00781 167.1543 C 70.968056 200.87416 24.111183 82.317058 83.951172 38.900391 L 84.34375 38.835938 L 84.310547 38.630859 C 84.331461 38.613787 84.35319 38.59697 84.375 38.582031 C 84.349818 38.582031 84.327063 38.585362 84.302734 38.589844 L 81.835938 23.376953 L 90.291016 21.984375 C 91.815551 21.732981 92.840809 20.295071 92.591797 18.757812 L 91.166016 9.9667969 L 91.175781 9.9667969 A 10.039634 20.890415 80.416557 0 0 91.158203 9.9101562 L 91.109375 9.6308594 C 91.041426 9.2138613 90.885458 8.837346 90.666016 8.5097656 A 10.039634 20.890415 80.416557 0 0 75.457031 2.9375 L 75.455078 2.9375 z M 70.689453 4.9765625 C 70.758256 4.9806172 70.80602 4.9946462 70.84375 5.0117188 C 65.320007 6.5170518 55.34247 12.335948 53.648438 15.457031 C 52.272715 17.991671 52.28125 21.640625 52.28125 21.640625 C 52.28125 21.640625 51.719773 18.413409 51.863281 15.513672 C 52.104858 10.631551 68.561777 4.8226002 70.689453 4.9785156 L 70.689453 4.9765625 z M 93.380859 35.310547 A 3.367059 3.395187 0 0 0 90.013672 38.705078 A 3.367059 3.395187 0 0 0 93.380859 42.101562 A 3.367059 3.395187 0 0 0 96.748047 38.705078 A 3.367059 3.395187 0 0 0 93.380859 35.310547 z M 110.03516 37.345703 A 3.367059 3.395187 0 0 0 106.66797 40.740234 A 3.367059 3.395187 0 0 0 110.03516 44.134766 A 3.367059 3.395187 0 0 0 113.40234 40.740234 A 3.367059 3.395187 0 0 0 110.03516 37.345703 z M 126.11133 41.464844 A 3.367059 3.395187 0 0 0 122.74414 44.861328 A 3.367059 3.395187 0 0 0 126.11133 48.255859 A 3.367059 3.395187 0 0 0 129.47852 44.861328 A 3.367059 3.395187 0 0 0 126.11133 41.464844 z M 144.00586 42.767578 C 143.32123 42.797455 142.65693 43.128552 142.21094 43.726562 L 131.60156 57.951172 C 130.80875 59.014111 131.01812 60.513076 132.07227 61.3125 L 134.35938 63.046875 C 135.41356 63.846256 136.90056 63.635205 137.69336 62.572266 L 148.30273 48.347656 C 149.09549 47.284717 148.88618 45.783842 147.83203 44.984375 L 145.54492 43.25 C 145.08366 42.900012 144.53838 42.743506 144.00586 42.767578 z M 43.410156 56.267578 C 46.901561 56.364892 49.604111 60.625258 49.462891 65.802734 C 49.321956 70.980083 46.384064 75.124615 42.892578 75.027344 C 39.401259 74.93131 36.698709 70.628521 36.839844 65.451172 C 36.980778 60.273823 39.918798 56.171459 43.410156 56.267578 z M 92.126953 57.529297 L 91.765625 57.898438 L 89.693359 59.986328 L 89.693359 65.564453 L 91.167969 67.048828 L 92.126953 66.072266 L 92.126953 57.529297 z M 153.12891 59.939453 C 151.26952 59.939581 149.76186 61.458987 149.76172 63.333984 C 149.76186 65.208896 151.26952 66.728388 153.12891 66.728516 C 154.98837 66.72843 156.49597 65.208939 156.49609 63.333984 C 156.49597 61.458944 154.98837 59.939538 153.12891 59.939453 z M 91.167969 67.195312 L 91.013672 67.34375 L 89.693359 68.677734 L 89.693359 74.257812 L 92.126953 76.707031 L 92.126953 68.195312 L 91.167969 67.195312 z M 164.20508 71.917969 A 3.367059 3.395187 0 0 0 160.83789 75.3125 A 3.367059 3.395187 0 0 0 164.20508 78.708984 A 3.367059 3.395187 0 0 0 167.57227 75.3125 A 3.367059 3.395187 0 0 0 164.20508 71.917969 z M 112.40234 78.697266 L 112.75391 79.066406 L 114.76172 81.113281 L 121.33203 81.113281 L 123.69922 78.697266 L 112.40234 78.697266 z M 123.77148 78.761719 L 123.4043 79.130859 L 121.39648 81.1875 L 121.39648 86.667969 L 122.8457 88.125 L 123.77148 87.167969 L 123.77148 78.761719 z M 112.32812 78.771484 L 112.32812 79.287109 L 112.32812 87.167969 L 113.26953 88.126953 L 114.7207 86.667969 L 114.7207 81.1875 L 112.32812 78.771484 z M 35.832031 83.144531 C 39.975353 83.258918 43.2006 88.338722 43.033203 94.482422 C 42.865849 100.62621 39.36776 105.50917 35.224609 105.39453 C 31.081668 105.28014 27.86564 100.2082 28.033203 94.064453 C 28.200557 87.920838 31.689089 83.029846 35.832031 83.144531 z M 172.96484 87.701172 A 3.367059 3.395187 0 0 0 169.59766 91.095703 A 3.367059 3.395187 0 0 0 172.96484 94.490234 A 3.367059 3.395187 0 0 0 176.33203 91.095703 A 3.367059 3.395187 0 0 0 172.96484 87.701172 z M 113.26953 88.257812 L 113.12305 88.421875 L 112.32812 89.248047 L 112.32812 97.621094 L 114.7207 95.203125 L 114.7207 89.722656 L 113.26953 88.257812 z M 122.85547 88.257812 L 122.69922 88.412109 L 121.39648 89.722656 L 121.39648 95.203125 L 123.77148 97.628906 L 123.77148 89.248047 L 122.85547 88.257812 z M 114.76172 95.277344 L 114.70312 95.34375 L 112.39453 97.693359 L 123.69922 97.693359 L 121.33008 95.277344 L 114.76172 95.277344 z M 186.85742 102.44141 C 186.69882 102.43714 186.53894 102.4545 186.37695 102.48438 L 169.0293 105.78125 C 167.7331 106.02752 166.88665 107.27695 167.13086 108.58398 L 167.66016 111.41992 C 167.90425 112.72696 169.14521 113.58021 170.44141 113.33398 L 187.78711 110.03906 C 189.08335 109.79279 189.92977 108.54328 189.68555 107.23633 L 189.15625 104.40039 C 188.94271 103.25678 187.96648 102.45975 186.85742 102.44336 L 186.85742 102.44141 z M 9.8300781 104.92773 C 11.939841 123.08533 19.216075 140.60753 30.564453 154.86523 C 28.172498 156.62042 26.377091 159.07704 25.8125 162.08203 C 25.031476 166.23963 26.821025 170.24728 29.761719 173.20703 C 32.702575 176.16669 36.838124 178.29865 41.623047 179.21289 C 46.408178 180.12662 51.035118 179.6697 54.845703 178 C 55.277465 177.81135 55.710748 177.61034 56.123047 177.38477 C 60.399825 180.00733 64.899316 182.30001 69.525391 184.22656 C 69.369347 183.53162 69.30682 182.86431 69.435547 182.17773 C 70.358286 177.26655 78.612671 174.67904 87.849609 176.44336 C 97.086125 178.2076 103.83094 183.65717 102.9082 188.56836 C 102.7073 189.63821 102.14039 190.59234 101.31055 191.41797 C 113.57186 191.9981 125.93329 190.2225 137.54297 186.19922 C 119.64875 201.54347 94.753868 208.22956 71.664062 203.87891 C 51.285107 199.9861 32.6511 187.63067 20.970703 170.34766 C 9.2905151 153.06456 4.7085366 131.06297 8.5683594 110.51367 C 8.9223596 108.63727 9.3440001 106.77354 9.8300781 104.92773 z M 148.55273 109.22852 L 148.18359 109.59766 L 145.36719 112.43945 L 145.36719 120.04102 L 147.30859 122 L 148.55273 120.74609 L 148.55273 109.22852 z M 180.14062 120.91797 A 3.367059 3.395187 0 0 0 176.77344 124.31445 A 3.367059 3.395187 0 0 0 180.14062 127.70898 A 3.367059 3.395187 0 0 0 183.50781 124.31445 A 3.367059 3.395187 0 0 0 180.14062 120.91797 z M 98.515625 122.2207 L 98.876953 122.58984 L 102.04688 125.83398 L 112.44336 125.83398 L 115.97266 122.2207 L 98.515625 122.2207 z M 147.30859 122.42773 L 147.16016 122.58203 L 145.36523 124.38281 L 145.36523 131.98633 L 148.55273 135.19727 L 148.55273 123.7207 L 147.30859 122.42773 z M 116.26758 122.50781 L 115.90039 122.87695 L 112.73047 126.12109 L 112.73047 134.7793 L 114.92578 136.98242 L 116.26758 135.58203 L 116.26758 122.50781 z M 98.220703 122.51562 L 98.220703 123.0332 L 98.220703 135.58203 L 99.615234 136.98242 L 101.80078 134.7793 L 101.80078 126.12109 L 98.220703 122.51562 z M 178.83789 137.36914 A 3.367059 3.395187 0 0 0 175.4707 140.76367 A 3.367059 3.395187 0 0 0 178.83789 144.16016 A 3.367059 3.395187 0 0 0 182.20508 140.76367 A 3.367059 3.395187 0 0 0 178.83789 137.36914 z M 114.92578 137.55664 L 114.76953 137.71289 L 112.73047 139.76758 L 112.73047 148.42773 L 116.26953 152.03906 L 116.26953 139.01367 L 114.92578 137.55664 z M 99.615234 137.56445 L 99.458984 137.7207 L 98.220703 139.01562 L 98.220703 152.04102 L 101.80078 148.42773 L 101.80078 139.76758 L 99.615234 137.56445 z M 102.04688 148.72266 L 101.99023 148.7793 L 98.515625 152.32812 L 115.97266 152.32812 L 112.44336 148.72266 L 102.04688 148.72266 z M 173.51562 153.87305 A 3.367059 3.395187 0 0 0 170.14844 157.26758 A 3.367059 3.395187 0 0 0 173.51562 160.66211 A 3.367059 3.395187 0 0 0 176.88281 157.26758 A 3.367059 3.395187 0 0 0 173.51562 153.87305 z M 44.941406 155.3418 C 46.171213 155.31619 47.446674 155.42109 48.75 155.66992 C 55.70076 156.99757 60.613977 161.92147 59.71875 166.6875 C 58.823314 171.45361 52.464428 174.23394 45.513672 172.90625 C 38.562831 171.57851 33.649486 166.64498 34.544922 161.87891 C 35.272423 158.0065 39.612367 155.45294 44.941406 155.3418 z "
         transform="matrix(0.23429366,0,0,0.23429366,22.697427,102.72556)" />
      <g
         id="g60221"
         transform="translate(0,-1.0583333)">
        <g
           id="g17910"
           style="font-style:normal;font-variant:normal;font-weight:bold;font-stretch:normal;font-size:56.7081px;line-height:100%;font-family:Raleway;-inkscape-font-specification:'Raleway, Bold';text-align:center;writing-mode:lr-tb;text-anchor:middle;fill:#001724;fill-opacity:1;fill-rule:nonzero;stroke:none;stroke-width:14.7742;stroke-linecap:round;stroke-linejoin:round;stroke-miterlimit:4;stroke-dasharray:none;stroke-dashoffset:0;stroke-opacity:1"
           transform="matrix(0.18404716,0,0,0.18529782,1214.4917,-1232.9325)">
          <path
             style="fill:#001724;fill-opacity:1;stroke-width:14.7742"
             id="path17912"
             d="m -6207.571,7260.896 v -40.2628 h 7.8257 v 33.4011 h 20.5283 v 6.8617 z"
             inkscape:connector-curvature="0" />
          <path
             style="fill:#001724;fill-opacity:1;stroke-width:14.7742"
             id="path17914"
             d="m -6162.9993,7220.6332 h 6.9184 l 15.3112,40.2628 h -8.0526 l -3.7427,-10.0373 h -14.0636 l -3.6861,10.0373 h -8.0525 z m 9.0166,24.7248 -5.5574,-15.8216 -5.7842,15.8216 z"
             inkscape:connector-curvature="0" />
          <path
             style="fill:#001724;fill-opacity:1;stroke-width:14.7742"
             id="path17916"
             d="m -6116.6767,7235.0938 v 25.8022 h -7.8258 v -40.2628 h 6.0678 l 20.982,26.426 v -26.3693 h 7.8258 v 40.2061 h -6.3514 z"
             inkscape:connector-curvature="0" />
          <path
             style="fill:#001724;fill-opacity:1;stroke-width:14.7742"
             id="path17918"
             d="m -6064.1836,7254.2611 q 2.7787,0 4.6501,-1.1341 1.9281,-1.1342 3.0622,-2.9488 1.1909,-1.8147 1.6446,-4.1397 0.5103,-2.3818 0.5103,-4.8769 v -20.5284 h 7.769 v 20.5284 q 0,4.1397 -1.0207,7.769 -0.964,3.6293 -3.1189,6.3513 -2.0983,2.722 -5.444,4.3098 -3.3458,1.5878 -7.9959,1.5878 -4.8202,0 -8.2227,-1.6445 -3.3457,-1.7012 -5.4439,-4.4232 -2.0982,-2.7787 -3.0623,-6.4081 -0.9073,-3.6293 -0.9073,-7.5421 v -20.5284 h 7.8257 v 20.5284 q 0,2.5518 0.4537,4.9336 0.5103,2.325 1.6445,4.1397 1.1909,1.8146 3.0623,2.9488 1.8713,1.0774 4.5933,1.0774 z"
             inkscape:connector-curvature="0" />
          <path
             style="fill:#001724;fill-opacity:1;stroke-width:14.7742"
             id="path17920"
             d="m -6038.6649,7260.896 v -40.2628 h 7.8257 v 40.2628 z"
             inkscape:connector-curvature="0" />
          <path
             style="fill:#001724;fill-opacity:1;stroke-width:14.7742"
             id="path17922"
             d="m -5992.3822,7227.4949 h -12.8728 v 33.4011 h -7.769 v -33.4011 h -12.8727 v -6.8617 h 33.5145 z"
             inkscape:connector-curvature="0" />
          <path
             style="fill:#001724;fill-opacity:1;stroke-width:14.7742"
             id="path17924"
             d="m -5975.3113,7260.896 v -40.2628 h 14.6307 q 4.9336,0 8.6197,1.5878 3.7427,1.5879 6.2379,4.3099 2.4951,2.7219 3.7427,6.408 1.2476,3.6293 1.2476,7.769 0,4.5934 -1.4177,8.3361 -1.361,3.686 -3.9696,6.3513 -2.6086,2.6086 -6.2946,4.083 -3.6293,1.4177 -8.166,1.4177 z m 26.5961,-20.1881 q 0,-2.8921 -0.7939,-5.3306 -0.7939,-2.4384 -2.325,-4.1964 -1.5311,-1.7579 -3.7995,-2.722 -2.2116,-0.964 -5.047,-0.964 h -6.805 v 26.5394 h 6.805 q 2.8921,0 5.1038,-1.0207 2.2683,-1.0208 3.7427,-2.7787 1.5311,-1.8147 2.325,-4.2531 0.7939,-2.4385 0.7939,-5.2739 z"
             inkscape:connector-curvature="0" />
          <path
             style="fill:#001724;fill-opacity:1;stroke-width:14.7742"
             id="path17926"
             d="m -5906.8167,7254.0343 v 6.8617 h -27.9571 v -40.2628 h 27.4467 v 6.8617 h -19.621 v 9.6971 h 16.9557 v 6.3513 h -16.9557 v 10.491 z"
             inkscape:connector-curvature="0" />
          <path
             style="fill:#001724;fill-opacity:1;stroke-width:14.7742"
             id="path17928"
             d="m -5887.0371,7260.896 v -40.2628 h 7.8257 v 33.4011 h 20.5284 v 6.8617 z"
             inkscape:connector-curvature="0" />
          <path
             style="fill:#001724;fill-opacity:1;stroke-width:14.7742"
             id="path17930"
             d="m -5859.3095,7232.5986 v -12.7026 h 6.4648 v 12.7026 z"
             inkscape:connector-curvature="0" />
        </g>
      </g>
    </g>
  </g>
  <style
     type="text/css"
     id="style203371">
	.st0{fill:#17182D;}
	.st1{fill:#23253A;}
	.st2{fill:#2C2E42;}
	.st3{fill:#D0110E;}
	.st4{fill:#FEDC25;}
	.st5{fill:#FDBC1D;}
	.st6{fill:#F9DE6B;}
	.st7{fill:#F9E491;}
	.st8{fill:#212333;}
	.st9{fill:#EA365D;}
	.st10{fill:#FF4061;}
	.st11{fill:#F3AA65;}
	.st12{fill:#C17842;}
	.st13{fill:#FABD86;}
	.st14{fill:#935C3E;}
	.st15{fill:#444444;}
	.st16{fill:#333333;}
	.st17{fill:#4D4D4D;}
	.st18{fill:#FFFFFF;}
	.st19{fill:#EFDDDB;}
	.st20{fill:#F9F8F7;}
</style>
</svg>
